{
	"asset":{
		"generator":"Khronos glTF Blender I/O v4.0.44",
		"version":"2.0"
	},
	"scene":0,
	"scenes":[
		{
			"name":"Scene",
			"nodes":[
				0
			]
		}
	],
	"nodes":[
		{
			"mesh":0,
			"name":"front",
			"rotation":[
				0.7071066498756409,
				0,
				0,
				0.70710688829422
			],
			"scale":[
				-0.0008948005852289498,
				-0.0008948016329668462,
				-0.0008948016329668462
			]
		}
	],
	"materials":[
		{
			"doubleSided":true,
			"extras":{
				"THREE_double_sided":1
			},
			"name":"front",
			"pbrMetallicRoughness":{
				"baseColorFactor":[
					1,
					0.9668790102005005,
					0.9524000883102417,
					1
				],
				"metallicFactor":0,
				"roughnessFactor":0.25
			}
		}
	],
	"meshes":[
		{
			"name":"Frente.008",
			"primitives":[
				{
					"attributes":{
						"POSITION":0,
						"NORMAL":1,
						"TEXCOORD_0":2,
						"TEXCOORD_1":3
					},
					"indices":4,
					"material":0
				}
			]
		}
	],
	"accessors":[
		{
			"bufferView":0,
			"componentType":5126,
			"count":542,
			"max":[
				762.3631591796875,
				1447.26416015625,
				693.8609619140625
			],
			"min":[
				-762.4324951171875,
				511.20538330078125,
				8.378265380859375
			],
			"type":"VEC3"
		},
		{
			"bufferView":1,
			"componentType":5126,
			"count":542,
			"type":"VEC3"
		},
		{
			"bufferView":2,
			"componentType":5126,
			"count":542,
			"type":"VEC2"
		},
		{
			"bufferView":3,
			"componentType":5126,
			"count":542,
			"type":"VEC2"
		},
		{
			"bufferView":4,
			"componentType":5123,
			"count":2484,
			"type":"SCALAR"
		}
	],
	"bufferViews":[
		{
			"buffer":0,
			"byteLength":6504,
			"byteOffset":0,
			"target":34962
		},
		{
			"buffer":0,
			"byteLength":6504,
			"byteOffset":6504,
			"target":34962
		},
		{
			"buffer":0,
			"byteLength":4336,
			"byteOffset":13008,
			"target":34962
		},
		{
			"buffer":0,
			"byteLength":4336,
			"byteOffset":17344,
			"target":34962
		},
		{
			"buffer":0,
			"byteLength":4968,
			"byteOffset":21680,
			"target":34963
		}
	],
	"buffers":[
		{
			"byteLength":26648,
			"uri":"kart.bin"
		}
	]
}
